<svg width="223" height="46" fill="none" version="1.1" viewBox="0 0 223 46" xmlns="http://www.w3.org/2000/svg">
 <ellipse cx="21.795" cy="23.28" rx="21.001" ry="20.799" fill="#fff"/>
 <text x="50.025234" y="33.342628" fill="#f2f2f2" font-family="Arial" font-size="26.824px" font-weight="400" stroke-width="1.8289" style="line-height:1.05" xml:space="preserve"><tspan x="50.025234" y="33.342628" rotate="0 0 0 0 0 0 0 0 0 0 0 0" fill="#1a1a1a" font-family="Arial" font-size="26.824px" font-weight="400" stroke-width="1.8289">Crowdtainer</tspan></text>
 <path d="m21.237 43.298c-2.2057-0.10709-3.9324-0.41645-5.8555-1.056a19.972 19.972 0 0 1-6.2482-3.4089c-0.71688-0.58005-0.96378-0.79868-0.93403-0.82843 0.010405-0.01037 0.24541-0.05205 0.52204-0.09221 0.60682-0.08924 2.286-0.10411 2.8958-0.02826 0.22756 0.02974 0.6217 0.07586 0.87454 0.10411 0.9028 0.10114 2.5909 0.586 3.7049 1.0664 0.29151 0.12642 0.78827 0.33762 1.1051 0.46999 1.2122 0.51015 1.7758 0.7734 2.0004 0.93254 0.61723 0.44024 1.581 1.2598 1.9975 1.6985l0.46107 0.48784 0.35993-0.32275c0.19781-0.17848 0.6797-0.57559 1.0709-0.88346 0.39265-0.30787 0.96229-0.7615 1.2672-1.0084 0.84182-0.68714 1.3445-1.0114 2.3053-1.4918 1.6628-0.83141 2.2577-1.0352 3.6082-1.236 0.62467-0.0937 0.88197-0.10709 2.048-0.10411 0.95485 0.0015 1.5052 0.0238 1.9335 0.07735 0.3287 0.04165 0.74812 0.08924 0.93254 0.1056 0.18294 0.01785 0.34208 0.04462 0.35398 0.06395 0.03272 0.05205-0.81207 0.77935-1.5617 1.346-1.0738 0.8091-1.9632 1.352-3.2691 1.9945-1.996 0.98162-3.7093 1.5275-5.9373 1.8859-0.96229 0.15468-2.7783 0.26772-3.635 0.22756zm2.2548-3.0118a148.46 148.46 0 0 1 1.9409-2.701l0.38372-0.51461 1.001-0.67672c1.2493-0.84479 1.5052-0.98014 2.7099-1.4427 1.1928-0.45512 3.2275-0.98757 4.5958-1.2017 1.4055-0.21863 3.8432-0.30787 4.395-0.15914 0.13981 0.03719 0.32275 0.06841 0.40752 0.06841 0.19335 0 0.19335 0-0.22905 0.63211a21.429 21.429 0 0 1-1.6509 2.1417c-0.72432 0.82397-0.66334 0.78084-1.0158 0.72432a27.099 27.099 0 0 0-0.87156-0.11303l-0.94295-0.11155c-0.68416-0.08329-2.399-0.11452-3.0148-0.05354-1.294 0.12493-2.1551 0.293-2.9003 0.56369-0.53692 0.19484-2.1982 0.98311-2.7277 1.294-0.52056 0.30787-1.2196 0.821-1.7416 1.2821-0.20971 0.18443-0.3629 0.3049-0.33911 0.26772zm-4.5333-0.92213c-0.13981-0.07436-0.55328-0.27218-0.92213-0.44024a45.778 45.778 0 0 1-0.98757-0.46255 20.73 20.73 0 0 0-2.1417-0.8552c-0.9965-0.3049-1.6256-0.44173-2.8066-0.6098a20.221 20.221 0 0 1-0.78232-0.12493c-0.31234-0.06098-3.0891-0.0595-3.7748 0l-0.48338 0.04462-0.17848-0.19038c-0.55625-0.58749-1.9171-2.344-1.8591-2.4005a2.6623 2.6623 0 0 1 0.40752-0.08924c0.28854-0.05205 0.76001-0.0699 1.8294-0.0699 1.465 0 1.9335 0.03719 3.5056 0.27961 1.5974 0.24689 3.5889 0.97419 5.5417 2.0242 0.87156 0.46999 1.2568 0.72432 1.4367 0.9489 0.13386 0.1636 1.3847 1.9038 1.4605 2.0272 0.04462 0.07436 0.05504 0.07585-0.24541-0.08329zm-2.8765-3.8224a23.089 23.089 0 0 0-2.5924-1.1274 14.486 14.486 0 0 0-2.93-0.73027c-1.7788-0.25284-1.8115-0.25582-3.3494-0.25284-1.343 0.0045-1.5364 0.01488-2.0376 0.10857a4.1778 4.1778 0 0 1-0.59939 0.08775c-0.13683-0.04759-1.3936-2.5701-1.5632-3.1382l-0.032721-0.11006 1.0292 0.02528c1.4947 0.0357 3.5309 0.28259 5.6592 0.68119 0.55328 0.10411 0.937 0.21268 1.6807 0.47891 1.6702 0.59938 2.286 0.87602 3.0103 1.3534 0.33613 0.22012 0.37183 0.26325 1.2464 1.4843 0.98014 1.3698 0.9846 1.3772 0.92957 1.3683a5.8094 5.8094 0 0 1-0.45065-0.22904zm11.164-0.51312c0.13088-0.18443 0.33167-0.47891 0.44768-0.6559 0.36142-0.55179 1.7238-1.8353 2.4719-2.3306a6.504 6.504 0 0 1 2.3009-0.88941c0.10114-0.01636 0.48486-0.10411 0.85223-0.19335 0.73919-0.17848 2.1997-0.40455 3.0787-0.47594a18.449 18.449 0 0 1 3.1576 0.04759c0.85371 0.09965 1.0352 0.13088 1.0352 0.17848 0 0.0699-0.52799 1.2508-0.74217 1.6613-0.36142 0.69011-0.30936 0.65442-0.80017 0.57708a13.472 13.472 0 0 1-0.65888-0.11899c-0.4923-0.10857-3.159 6e-3 -4.2418 0.18145a32.661 32.661 0 0 0-2.6667 0.58005c-1.7342 0.43281-3.3702 1.0619-4.1541 1.5944-0.14427 0.09668-0.27515 0.17848-0.29003 0.17848-0.01488 0 0.08032-0.1517 0.20971-0.33464zm-14.271-3.629c-0.36736-0.17848-1.05-0.45512-1.5185-0.61426a39.716 39.716 0 0 1-1.0828-0.38224 23.47 23.47 0 0 0-1.9513-0.59492 39.009 39.009 0 0 0-1.822-0.36439c-0.63657-0.10263-1.697-0.12791-2.7158-0.06395-0.50568 0.03124-0.99203 0.0595-1.0813 0.06247-0.16063 6e-3 -0.16212 3e-3 -0.26623-0.3168-0.34059-1.0441-0.61277-2.3514-0.7734-3.7034-0.10114-0.83587-0.11452-3.101-0.025284-3.9592 0.12642-1.2196 0.33613-2.3663 0.62467-3.4149a20.379 20.379 0 0 1 4.1823-7.8307 20.327 20.327 0 0 1 18.74-6.6988 20.834 20.834 0 0 1 6.6185 2.3485 20.278 20.278 0 0 1 6.8565 6.4148c1.4962 2.2786 2.5433 4.8843 2.9806 7.4261l0.21566 1.2493c0.06098 0.351 0.07735 0.78084 0.08032 2.2087 3e-3 1.7595-0.03273 2.3187-0.20376 3.1754a33.911 33.911 0 0 0-0.116 0.644c-0.14278 0.83587-0.21864 1.1214-0.60831 2.3024a4.4798 4.4798 0 0 1-0.18889 0.51461c-0.01785 0.01636-0.22756 0-0.4685-0.0357-0.63359-0.09965-0.86413-0.10411-2.6266-0.06247-1.4635 0.0357-1.6807 0.05205-2.7366 0.20376-1.6078 0.23202-3.4818 0.6916-4.1079 1.0084-0.16955 0.08626-1.0099 0.53989-1.2821 0.7035-0.27218 0.1636 4.0841-7.0989 4.0841-7.1093 0.72283-1.5066-1.0381-2.1997-2.0495-3.2096l-0.07436-7.7459-3.1709-0.02974-0.06544-5.6622h-3.8328l-0.0357-3.4654-5.68-0.019335-3e-3 3.4892-3.8566 0.00446-0.03867 5.5402-3.4639 0.05205-0.07437 7.7637c-1.4977 1.2672-2.7366 2.5388-2.0436 3.5517 3.0713 4.2983 4.2953 6.9487 4.2626 6.9457-0.0075 0-0.31382-0.14724-0.68119-0.32423z" fill="#148aab" stroke-width=".046025"/>
 <g transform="matrix(.15352 0 0 .15352 1.9852 3.1152)" stroke="#000" stroke-width=".27585px">
  <path d="m144.74 14.57-30.922-0.11237v19.115l31.027 0.29643z" fill="#3d9f53"/>
  <path d="m90.038 37.433 78.557 0.05727-0.0409 32.123-78.436-1.0573z" fill="#3d9f53"/>
  <path d="m56.8 132.6 71.382-22.859-0.70416 60.371z" fill="#355571"/>
  <path d="m129.62 169.99 0.0779-60.185 70.495 23.578z" fill="#274157"/>
  <path d="m57.135 135.8 70.668 108.76-0.3613-69.67z" fill="#355571"/>
  <path d="m129.58 174.87 0.5411 70.3 69.925-107.26z" fill="#162635"/>
  <path d="m127.21 72.166-58.416 0.15796-0.02869 52.212 60.135-19.997 59.179 19.942-0.0489-51.957z" fill="#3d9f53"/>
 </g>
</svg>
